<?xml version="1.0" encoding="UTF-8" standalone="no"?>
<svg
   xmlns:dc="http://purl.org/dc/elements/1.1/"
   xmlns:cc="http://creativecommons.org/ns#"
   xmlns:rdf="http://www.w3.org/1999/02/22-rdf-syntax-ns#"
   xmlns:svg="http://www.w3.org/2000/svg"
   xmlns="http://www.w3.org/2000/svg"
   xmlns:sodipodi="http://sodipodi.sourceforge.net/DTD/sodipodi-0.dtd"
   xmlns:inkscape="http://www.inkscape.org/namespaces/inkscape"
   height="800"
   width="1280"
   version="1.1"
   viewBox="0 0 338.66666 211.66667"
   id="svg36"
   sodipodi:docname="Awaiting command--landscape-1280x800.svg"
   inkscape:version="0.92.5 (0.92.5+68)">
  <metadata
     id="metadata42">
    <rdf:RDF>
      <cc:Work
         rdf:about="">
        <dc:format>image/svg+xml</dc:format>
        <dc:type
           rdf:resource="http://purl.org/dc/dcmitype/StillImage" />
        <dc:title></dc:title>
      </cc:Work>
    </rdf:RDF>
  </metadata>
  <defs
     id="defs40">
    <clipPath
       clipPathUnits="userSpaceOnUse"
       id="clipPath18">
      <path
         inkscape:connector-curvature="0"
         d="M 0,2500 H 2500 V 0 H 0 Z"
         id="path16-2" />
    </clipPath>
    <clipPath
       clipPathUnits="userSpaceOnUse"
       id="clipPath30">
      <path
         inkscape:connector-curvature="0"
         d="M 0,2500 H 2500 V 0 H 0 Z"
         id="path28-9" />
    </clipPath>
    <clipPath
       clipPathUnits="userSpaceOnUse"
       id="clipPath42">
      <path
         inkscape:connector-curvature="0"
         d="M 0,2500 H 2500 V 0 H 0 Z"
         id="path40" />
    </clipPath>
    <clipPath
       clipPathUnits="userSpaceOnUse"
       id="clipPath54">
      <path
         inkscape:connector-curvature="0"
         d="M 0,2500 H 2500 V 0 H 0 Z"
         id="path52" />
    </clipPath>
    <clipPath
       clipPathUnits="userSpaceOnUse"
       id="clipPath66">
      <path
         inkscape:connector-curvature="0"
         d="M 0,2500 H 2500 V 0 H 0 Z"
         id="path64" />
    </clipPath>
    <clipPath
       clipPathUnits="userSpaceOnUse"
       id="clipPath78">
      <path
         inkscape:connector-curvature="0"
         d="M 0,2500 H 2500 V 0 H 0 Z"
         id="path76" />
    </clipPath>
    <clipPath
       clipPathUnits="userSpaceOnUse"
       id="clipPath90">
      <path
         inkscape:connector-curvature="0"
         d="M 0,2500 H 2500 V 0 H 0 Z"
         id="path88" />
    </clipPath>
    <clipPath
       clipPathUnits="userSpaceOnUse"
       id="clipPath102">
      <path
         inkscape:connector-curvature="0"
         d="M 0,2500 H 2500 V 0 H 0 Z"
         id="path100" />
    </clipPath>
    <clipPath
       clipPathUnits="userSpaceOnUse"
       id="clipPath114">
      <path
         inkscape:connector-curvature="0"
         d="M 0,2500 H 2500 V 0 H 0 Z"
         id="path112" />
    </clipPath>
    <clipPath
       clipPathUnits="userSpaceOnUse"
       id="clipPath126">
      <path
         inkscape:connector-curvature="0"
         d="M 0,2500 H 2500 V 0 H 0 Z"
         id="path124" />
    </clipPath>
    <clipPath
       clipPathUnits="userSpaceOnUse"
       id="clipPath138">
      <path
         inkscape:connector-curvature="0"
         d="M 0,2500 H 2500 V 0 H 0 Z"
         id="path136" />
    </clipPath>
    <clipPath
       clipPathUnits="userSpaceOnUse"
       id="clipPath162">
      <path
         inkscape:connector-curvature="0"
         d="M 0,2500 H 2500 V 0 H 0 Z"
         id="path160" />
    </clipPath>
    <clipPath
       clipPathUnits="userSpaceOnUse"
       id="clipPath174">
      <path
         inkscape:connector-curvature="0"
         d="M 0,2500 H 2500 V 0 H 0 Z"
         id="path172" />
    </clipPath>
    <clipPath
       clipPathUnits="userSpaceOnUse"
       id="clipPath186">
      <path
         inkscape:connector-curvature="0"
         d="M 0,2500 H 2500 V 0 H 0 Z"
         id="path184" />
    </clipPath>
    <clipPath
       clipPathUnits="userSpaceOnUse"
       id="clipPath198">
      <path
         inkscape:connector-curvature="0"
         d="M 0,2500 H 2500 V 0 H 0 Z"
         id="path196" />
    </clipPath>
    <clipPath
       id="clipPath18-6"
       clipPathUnits="userSpaceOnUse">
      <path
         id="path16-2-1"
         d="M 0,2500 H 2500 V 0 H 0 Z"
         inkscape:connector-curvature="0" />
    </clipPath>
    <clipPath
       id="clipPath30-2"
       clipPathUnits="userSpaceOnUse">
      <path
         id="path28-9-9"
         d="M 0,2500 H 2500 V 0 H 0 Z"
         inkscape:connector-curvature="0" />
    </clipPath>
    <clipPath
       id="clipPath42-3"
       clipPathUnits="userSpaceOnUse">
      <path
         id="path40-1"
         d="M 0,2500 H 2500 V 0 H 0 Z"
         inkscape:connector-curvature="0" />
    </clipPath>
    <clipPath
       id="clipPath54-9"
       clipPathUnits="userSpaceOnUse">
      <path
         id="path52-4"
         d="M 0,2500 H 2500 V 0 H 0 Z"
         inkscape:connector-curvature="0" />
    </clipPath>
    <clipPath
       id="clipPath66-7"
       clipPathUnits="userSpaceOnUse">
      <path
         id="path64-8"
         d="M 0,2500 H 2500 V 0 H 0 Z"
         inkscape:connector-curvature="0" />
    </clipPath>
    <clipPath
       id="clipPath78-4"
       clipPathUnits="userSpaceOnUse">
      <path
         id="path76-5"
         d="M 0,2500 H 2500 V 0 H 0 Z"
         inkscape:connector-curvature="0" />
    </clipPath>
    <clipPath
       id="clipPath90-0"
       clipPathUnits="userSpaceOnUse">
      <path
         id="path88-3"
         d="M 0,2500 H 2500 V 0 H 0 Z"
         inkscape:connector-curvature="0" />
    </clipPath>
    <clipPath
       id="clipPath102-6"
       clipPathUnits="userSpaceOnUse">
      <path
         id="path100-1"
         d="M 0,2500 H 2500 V 0 H 0 Z"
         inkscape:connector-curvature="0" />
    </clipPath>
    <clipPath
       id="clipPath114-0"
       clipPathUnits="userSpaceOnUse">
      <path
         id="path112-6"
         d="M 0,2500 H 2500 V 0 H 0 Z"
         inkscape:connector-curvature="0" />
    </clipPath>
    <clipPath
       id="clipPath126-3"
       clipPathUnits="userSpaceOnUse">
      <path
         id="path124-2"
         d="M 0,2500 H 2500 V 0 H 0 Z"
         inkscape:connector-curvature="0" />
    </clipPath>
    <clipPath
       id="clipPath138-0"
       clipPathUnits="userSpaceOnUse">
      <path
         id="path136-6"
         d="M 0,2500 H 2500 V 0 H 0 Z"
         inkscape:connector-curvature="0" />
    </clipPath>
    <clipPath
       id="clipPath162-1"
       clipPathUnits="userSpaceOnUse">
      <path
         id="path160-5"
         d="M 0,2500 H 2500 V 0 H 0 Z"
         inkscape:connector-curvature="0" />
    </clipPath>
    <clipPath
       id="clipPath174-5"
       clipPathUnits="userSpaceOnUse">
      <path
         id="path172-4"
         d="M 0,2500 H 2500 V 0 H 0 Z"
         inkscape:connector-curvature="0" />
    </clipPath>
    <clipPath
       id="clipPath186-7"
       clipPathUnits="userSpaceOnUse">
      <path
         id="path184-6"
         d="M 0,2500 H 2500 V 0 H 0 Z"
         inkscape:connector-curvature="0" />
    </clipPath>
    <clipPath
       id="clipPath198-5"
       clipPathUnits="userSpaceOnUse">
      <path
         id="path196-6"
         d="M 0,2500 H 2500 V 0 H 0 Z"
         inkscape:connector-curvature="0" />
    </clipPath>
  </defs>
  <sodipodi:namedview
     pagecolor="#ffffff"
     bordercolor="#666666"
     borderopacity="1"
     objecttolerance="10"
     gridtolerance="10"
     guidetolerance="10"
     inkscape:pageopacity="0"
     inkscape:pageshadow="2"
     inkscape:window-width="1859"
     inkscape:window-height="1056"
     id="namedview38"
     showgrid="false"
     inkscape:zoom="0.48995466"
     inkscape:cx="499.59704"
     inkscape:cy="281.93256"
     inkscape:window-x="61"
     inkscape:window-y="24"
     inkscape:window-maximized="1"
     inkscape:current-layer="svg36" />
  <rect
     style="color-rendering:auto;color:#000000;isolation:auto;mix-blend-mode:normal;paint-order:stroke fill markers;shape-rendering:auto;solid-color:#000000;image-rendering:auto;fill:#333333;fill-opacity:1"
     transform="rotate(-90)"
     rx="0"
     ry="0"
     height="338.7"
     width="211.7"
     y="-.01667"
     x="-211.7"
     fill="#111"
     id="rect2" />
  <g
     id="g10"
     transform="matrix(0.07033012,0,0,-0.07033012,78.887133,183.27757)">
    <g
       id="g12">
      <g
         id="g14"
         clip-path="url(#clipPath18)">
        <g
           id="g20"
           transform="translate(1552.1523,1305.5713)">
          <path
             inkscape:connector-curvature="0"
             d="M 0,0 C 0,0 -103.01,35.324 -264.107,34.934 -425.203,35.324 -528.123,0 -528.123,0 -568.682,-685.026 -304.072,-685.924 -264.15,-682.204 -224.207,-685.924 40.559,-685.026 0,0"
             style="fill:#f15a24;fill-opacity:1;fill-rule:nonzero;stroke:none"
             id="path22-1" />
        </g>
      </g>
    </g>
    <g
       id="g24">
      <g
         id="g26"
         clip-path="url(#clipPath30)">
        <g
           id="g32"
           transform="translate(1552.1523,1304.6353)">
          <path
             inkscape:connector-curvature="0"
             d="m 0,0 c 0,0 -103.01,35.365 -264.107,35.365 h -0.045 v -718 h 0.002 C -224.207,-685.635 40.559,-685.027 0,0"
             style="fill:#db481b;fill-opacity:1;fill-rule:nonzero;stroke:none"
             id="path34-2" />
        </g>
      </g>
    </g>
    <g
       id="g36">
      <g
         id="g38"
         clip-path="url(#clipPath42)">
        <g
           id="g44"
           transform="translate(1530.625,1847)">
          <path
             inkscape:connector-curvature="0"
             d="m 0,0 c 0,0 -49.625,28 -243.625,30 -194,-2 -243.713,-30 -243.713,-30 -107.175,-50.397 -128.563,-154.918 -130.003,-224 1.44,-69.082 22.828,-173.603 130.003,-224 0,0 49.713,-28 243.713,-30 194,2 243.625,30 243.625,30 107.175,50.397 128.526,154.918 129.94,224 C 128.526,-154.918 107.175,-50.397 0,0"
             style="fill:#f15a24;fill-opacity:1;fill-rule:nonzero;stroke:none"
             id="path46" />
        </g>
      </g>
    </g>
    <g
       id="g48">
      <g
         id="g50"
         clip-path="url(#clipPath54)">
        <g
           id="g56"
           transform="translate(1531.625,1848)">
          <path
             inkscape:connector-curvature="0"
             d="m 0,0 c 0,0 -49.625,28 -243.625,30 v -508 c 194,2 243.625,30 243.625,30 107.175,50.397 128.526,154.918 129.94,224 C 128.526,-154.918 107.175,-50.397 0,0"
             style="fill:#db481b;fill-opacity:1;fill-rule:nonzero;stroke:none"
             id="path58" />
        </g>
      </g>
    </g>
    <g
       id="g60">
      <g
         id="g62"
         clip-path="url(#clipPath66)">
        <g
           id="g68"
           transform="translate(921.5,1706)">
          <path
             inkscape:connector-curvature="0"
             d="m 0,0 c 0,0 -24,-57 -6,-148 0,0 -49.5,4 -50,12 0,0 -31.5,49 0,123 0,0 3.5,6 56,13"
             style="fill:#f15a24;fill-opacity:1;fill-rule:nonzero;stroke:none"
             id="path70" />
        </g>
      </g>
    </g>
    <g
       id="g72">
      <g
         id="g74"
         clip-path="url(#clipPath78)">
        <g
           id="g80"
           transform="translate(1653.5,1706)">
          <path
             inkscape:connector-curvature="0"
             d="m 0,0 c 0,0 24,-57 6,-148 0,0 49.5,4 50,12 0,0 31.5,49 0,123 0,0 -3.5,6 -56,13"
             style="fill:#db481b;fill-opacity:1;fill-rule:nonzero;stroke:none"
             id="path82" />
        </g>
      </g>
    </g>
    <g
       id="g84">
      <g
         id="g86"
         clip-path="url(#clipPath90)">
        <g
           id="g92"
           transform="translate(1554.9258,1692)">
          <path
             inkscape:connector-curvature="0"
             d="m 0,0 c 11.785,-23.893 15.505,-48.548 15.999,-68.5 -1.075,-43.38 -17.305,-109.014 -98.767,-140.662 0,0 -37.718,-17.582 -185.175,-18.838 -147.458,1.256 -185.244,18.838 -185.244,18.838 -81.462,31.648 -97.719,97.282 -98.814,140.662 0.503,19.951 4.228,44.606 16.016,68.5 z"
             style="fill:#333333;fill-opacity:1;fill-rule:nonzero;stroke:none"
             id="path94" />
        </g>
      </g>
    </g>
    <g
       id="g96">
      <g
         id="g98"
         clip-path="url(#clipPath102)">
        <g
           id="g104"
           transform="translate(1555.002,1556)">
          <path
             inkscape:connector-curvature="0"
             d="m 0,0 c 11.784,23.893 15.504,48.548 15.998,68.5 -1.074,43.38 -17.305,109.014 -98.767,140.662 0,0 -37.718,17.582 -185.175,18.838 -147.458,-1.256 -185.244,-18.838 -185.244,-18.838 -81.462,-31.648 -97.719,-97.282 -98.814,-140.662 0.503,-19.951 4.228,-44.606 16.017,-68.5 z"
             style="fill:#333333;fill-opacity:1;fill-rule:nonzero;stroke:none"
             id="path106" />
        </g>
      </g>
    </g>
    <g
       id="g108">
      <g
         id="g110"
         clip-path="url(#clipPath114)">
        <g
           id="g116"
           transform="translate(1101.8135,1737.291)">
          <path
             inkscape:connector-curvature="0"
             d="M 0,0 C 0,0 37.787,16.995 185.244,18.209 332.701,16.995 370.42,0 370.42,0 c 74.382,-27.931 94.374,-83.248 98.106,-124.572 0.356,4.069 0.567,8.01 0.661,11.781 -1.075,43.38 -17.305,109.014 -98.767,140.662 0,0 -37.719,17.582 -185.176,18.838 C 37.787,45.453 0,27.871 0,27.871 -81.462,-3.777 -97.719,-69.411 -98.813,-112.791 c 0.095,-3.771 0.308,-7.712 0.665,-11.781 C -94.397,-83.248 -74.382,-27.931 0,0"
             style="fill:#1a1a1a;fill-opacity:1;fill-rule:nonzero;stroke:none"
             id="path118" />
        </g>
      </g>
    </g>
    <g
       id="g120">
      <g
         id="g122"
         clip-path="url(#clipPath126)">
        <g
           id="g128"
           transform="translate(1472.2334,1765.1616)">
          <path
             inkscape:connector-curvature="0"
             d="m 0,0 c 0,0 -37.719,17.583 -185.176,18.838 -0.019,0 -0.038,0 -0.057,0 v -319 h 0.057 c 147.457,1 185.176,18.839 185.176,18.839 81.462,31.647 97.692,97.281 98.767,140.661 C 97.692,-97.282 81.462,-31.647 0,0"
             style="fill:#1a1a1a;fill-opacity:1;fill-rule:nonzero;stroke:none"
             id="path130" />
        </g>
      </g>
    </g>
    <g
       id="g132">
      <g
         id="g134"
         clip-path="url(#clipPath138)">
        <g
           id="g140"
           transform="translate(1187.3335,1626)">
          <path
             inkscape:connector-curvature="0"
             d="m 0,0 c 0,-25.773 -20.894,-24.094879 -46.667,-24.094879 -25.773,0 -46.666,-1.678121 -46.666,24.094879 0,25.773 20.893,24.094879 46.666,24.094879 C -20.894,24.094879 0,25.773 0,0"
             style="fill:#f2f2f2;fill-opacity:1;fill-rule:nonzero;stroke:none"
             id="path142"
             sodipodi:nodetypes="csssc" />
        </g>
        <g
           id="g144"
           transform="translate(1482.333,1626)">
          <path
             inkscape:connector-curvature="0"
             d="m 0,0 c 0,-25.773 -20.893,-24.094879 -46.666,-24.094879 -25.773,0 -46.667,-1.678121 -46.667,24.094879 0,25.773 20.894,24.094879 46.667,24.094879 C -20.893,24.094879 0,25.773 0,0"
             style="fill:#f2f2f2;fill-opacity:1;fill-rule:nonzero;stroke:none"
             id="path146"
             sodipodi:nodetypes="csssc" />
        </g>
        <g
           id="g148"
           transform="matrix(1,0,0,-1,1229.8413,1519)" />
        <g
           id="g152"
           transform="translate(1425.9717,1245.6855)">
          <path
             inkscape:connector-curvature="0"
             d="m 0,0 c -13.718,-18.071 -32.467,-29.909 -52.425,-34.894 25.706,-27.072 57.766,-55.744 94.218,-83.414 109.488,-83.109 217.071,-125.682 240.292,-95.09 23.221,30.59 -46.713,122.763 -156.201,205.872 C 89.158,20.351 52.653,43.657 19.469,61.182 20.346,40.214 14.008,18.455 0,0"
             style="fill:#db481b;fill-opacity:1;fill-rule:nonzero;stroke:none"
             id="path154" />
        </g>
      </g>
    </g>
    <g
       id="g156">
      <g
         id="g158"
         clip-path="url(#clipPath162)">
        <g
           id="g164"
           transform="translate(1135.0835,1245.6855)">
          <path
             inkscape:connector-curvature="0"
             d="m 0,0 c 13.717,-18.071 32.466,-29.909 52.424,-34.894 -25.706,-27.072 -57.765,-55.744 -94.218,-83.414 -109.488,-83.109 -217.07,-125.682 -240.291,-95.09 -23.221,30.59 46.712,122.763 156.201,205.872 36.725,27.877 73.23,51.183 106.415,68.708 C -20.347,40.214 -14.008,18.455 0,0"
             style="fill:#f15a24;fill-opacity:1;fill-rule:nonzero;stroke:none"
             id="path166" />
        </g>
      </g>
    </g>
    <g
       id="g168">
      <g
         id="g170"
         clip-path="url(#clipPath174)">
        <g
           id="g176"
           transform="translate(1234.6665,1176)">
          <path
             inkscape:connector-curvature="0"
             d="m 0,0 c 0,-28.719 -23.281,-52 -52,-52 -28.719,0 -52,23.281 -52,52 0,28.719 23.281,52 52,52 C -23.281,52 0,28.719 0,0"
             style="fill:#333333;fill-opacity:1;fill-rule:nonzero;stroke:none"
             id="path178" />
        </g>
      </g>
    </g>
    <g
       id="g180">
      <g
         id="g182"
         clip-path="url(#clipPath186)">
        <g
           id="g188"
           transform="translate(1177.667,1217)">
          <path
             inkscape:connector-curvature="0"
             d="M 0,0 C 28.719,0 52,-23.281 52,-52 52,-57.538 51.126,-62.869 49.522,-67.875 54.267,-60.032 57,-50.836 57,-41 57,-12.281 33.719,11 5,11 -18.181,11 -37.811,-4.172 -44.523,-25.125 -35.414,-10.066 -18.883,0 0,0"
             style="fill:#1a1a1a;fill-opacity:1;fill-rule:nonzero;stroke:none"
             id="path190" />
        </g>
      </g>
    </g>
    <g
       id="g192">
      <g
         id="g194"
         clip-path="url(#clipPath198)">
        <g
           id="g200"
           transform="translate(1168.0864,1195.4727)">
          <path
             inkscape:connector-curvature="0"
             d="m 0,0 c 1.417,-2.373 2.805,-4.698 4.189,-7.018 -9.654,-6.835 -9.584,-21.162 0.015,-28.136 -1.394,-2.342 -2.794,-4.693 -4.23,-7.105 -0.296,0.163 -0.548,0.27 -0.764,0.426 -4.666,3.399 -7.866,7.848 -9.582,13.366 -0.193,0.621 -0.181,1.056 0.338,1.583 3.279,3.33 3.243,8.254 0.018,11.623 -0.273,0.285 -0.487,0.878 -0.387,1.232 1.619,5.716 4.92,10.262 9.723,13.735 0.114,0.083 0.236,0.155 0.361,0.22 C -0.259,-0.043 -0.184,-0.041 0,0"
             style="fill:#ffffff;fill-opacity:1;fill-rule:nonzero;stroke:none"
             id="path202" />
        </g>
        <g
           id="g204"
           transform="translate(1207.5605,1172.8574)">
          <path
             inkscape:connector-curvature="0"
             d="m 0,0 c -0.413,-5.444 -2.164,-10.053 -5.317,-14.13 -0.13,-0.167 -0.281,-0.319 -0.397,-0.495 -0.928,-1.414 -1.929,-2.036 -3.875,-1.632 -3.798,0.789 -7.699,-1.967 -8.79,-5.834 -0.217,-0.766 -0.561,-1.076 -1.312,-1.238 -5.484,-1.184 -10.803,-0.735 -15.961,1.495 -0.258,0.111 -0.513,0.234 -0.762,0.366 -0.087,0.046 -0.152,0.134 -0.282,0.253 1.335,2.392 2.671,4.785 4.03,7.22 2.329,-1.013 4.669,-1.568 7.143,-1.564 8.555,0.015 15.654,6.045 16.96,14.5 0.132,0.852 0.415,1.098 1.256,1.079 C -4.918,-0.036 -2.528,0 0,0"
             style="fill:#ffffff;fill-opacity:1;fill-rule:nonzero;stroke:none"
             id="path206" />
        </g>
        <g
           id="g208"
           transform="translate(1207.4907,1175.9609)">
          <path
             inkscape:connector-curvature="0"
             d="m 0,0 h -8.295 c -0.734,5.688 -3.457,10.247 -8.526,13.185 -5.05,2.925 -10.325,3.005 -15.783,0.751 -1.344,2.405 -2.679,4.794 -4.064,7.272 0.371,0.191 0.667,0.366 0.98,0.503 5.254,2.279 10.67,2.771 16.256,1.495 0.632,-0.144 0.911,-0.433 1.087,-1.07 1.234,-4.449 5.598,-6.941 10.064,-5.754 0.594,0.157 0.94,0.07 1.365,-0.381 3.99,-4.236 6.26,-9.253 6.912,-15.018 C 0.027,0.712 0,0.435 0,0"
             style="fill:#ffffff;fill-opacity:1;fill-rule:nonzero;stroke:none"
             id="path210" />
        </g>
        <g
           id="g212"
           transform="translate(1202.9321,1148.4443)">
          <path
             inkscape:connector-curvature="0"
             d="m 0,0 c -0.059,-3.244 -2.703,-5.857 -5.904,-5.836 -3.251,0.022 -5.92,2.748 -5.865,5.991 0.057,3.29 2.73,5.873 6.019,5.815 C -2.536,5.912 0.058,3.219 0,0"
             style="fill:#ffffff;fill-opacity:1;fill-rule:nonzero;stroke:none"
             id="path214" />
        </g>
        <g
           id="g216"
           transform="translate(1152.2441,1180.2471)">
          <path
             inkscape:connector-curvature="0"
             d="m 0,0 c 3.295,0.016 5.937,-2.612 5.924,-5.894 -0.011,-3.237 -2.611,-5.845 -5.849,-5.87 -3.269,-0.024 -5.934,2.631 -5.922,5.902 C -5.836,-2.616 -3.242,-0.016 0,0"
             style="fill:#ffffff;fill-opacity:1;fill-rule:nonzero;stroke:none"
             id="path218" />
        </g>
        <g
           id="g220"
           transform="translate(1191.1616,1200.3154)">
          <path
             inkscape:connector-curvature="0"
             d="M 0,0 C 0.068,3.249 2.706,5.817 5.937,5.782 9.237,5.745 11.831,3.087 11.771,-0.199 11.712,-3.469 8.976,-6.098 5.737,-5.995 2.504,-5.893 -0.067,-3.206 0,0"
             style="fill:#ffffff;fill-opacity:1;fill-rule:nonzero;stroke:none"
             id="path222" />
        </g>
      </g>
    </g>
  </g>
  <text
     xml:space="preserve"
     style="font-style:normal;font-variant:normal;font-weight:normal;font-stretch:normal;font-size:10.58333302px;line-height:0px;font-family:Ubuntu;-inkscape-font-specification:Ubuntu;letter-spacing:0px;word-spacing:0px;fill:#000000;fill-opacity:1;stroke:none;stroke-width:0.26458332px;stroke-linecap:butt;stroke-linejoin:miter;stroke-opacity:1"
     x="123.76812"
     y="32.730515"
     id="text5024"><tspan
       sodipodi:role="line"
       id="tspan5022"
       x="123.76812"
       y="32.730515"
       style="fill:#dfdfdf;fill-opacity:1;stroke-width:0.26458332px">Awaiting command</tspan></text>
</svg>
